# Blender 3.1.0
# www.blender.org
mtllib ridge-1-side2.mtl
o ridge-1-side2
v -0.188662 2.690219 0.046096
v -0.188662 2.654870 0.071757
v -0.188662 2.704861 -0.000000
v -0.188662 2.690219 -0.046096
v -0.188663 2.654870 -0.071758
v -0.108306 2.673969 0.060784
v -0.108306 2.700979 0.024905
v -0.108306 2.700979 -0.024906
v -0.108306 2.673969 -0.060785
v -0.250000 2.673995 0.060769
v -0.250000 2.701043 0.024840
v -0.250000 2.701043 -0.025040
v -0.250000 2.673995 -0.060969
v -0.108306 2.654870 0.071757
v -0.108306 2.690219 0.046096
v -0.250000 2.654870 0.071757
v -0.108306 2.704861 -0.000000
v -0.108306 2.690219 -0.046096
v -0.108306 2.654870 -0.071758
v -0.188662 2.673969 0.060784
v -0.188662 2.700979 0.024905
v -0.188662 2.700979 -0.024906
v -0.188662 2.673969 -0.060785
v -0.250000 2.690268 0.046060
v -0.250000 2.704930 -0.000100
v -0.250000 2.690268 -0.046260
v -0.250000 2.654870 -0.071957
v -0.153725 2.682628 0.054136
v -0.055900 2.682628 0.054136
v -0.055900 2.664598 0.066503
v -0.153725 2.664598 0.066503
v -0.153725 2.703853 0.012685
v -0.055900 2.703853 0.012685
v -0.055900 2.696385 0.036197
v -0.153725 2.696385 0.036197
v -0.153725 2.696385 -0.036198
v -0.055900 2.696385 -0.036198
v -0.055900 2.703853 -0.012685
v -0.153725 2.703853 -0.012685
v -0.153725 2.664598 -0.066503
v -0.055900 2.664598 -0.066503
v -0.055900 2.682628 -0.054137
v -0.153725 2.682628 -0.054137
v -0.209625 2.682628 0.054136
v -0.209625 2.664598 0.066503
v -0.209625 2.703853 0.012685
v -0.209625 2.696385 0.036197
v -0.209625 2.696385 -0.036198
v -0.209625 2.703853 -0.012685
v -0.209625 2.664598 -0.066503
v -0.209625 2.682628 -0.054137
v -0.153725 2.690219 0.046096
v -0.108306 2.682628 0.054136
v -0.153725 2.673969 0.060784
v -0.188662 2.682628 0.054136
v -0.055900 2.690219 0.046096
v -0.055900 2.673969 0.060784
v -0.055900 2.654870 0.071757
v -0.108306 2.664598 0.066503
v -0.153725 2.654870 0.071757
v -0.188662 2.664598 0.066503
v -0.153725 2.704861 -0.000000
v -0.108306 2.703853 0.012685
v -0.153725 2.700979 0.024905
v -0.188662 2.703853 0.012685
v -0.055900 2.704861 -0.000000
v -0.055900 2.700979 0.024905
v -0.108306 2.696385 0.036197
v -0.188662 2.696385 0.036197
v -0.153725 2.690219 -0.046096
v -0.108306 2.696385 -0.036198
v -0.153725 2.700979 -0.024906
v -0.188662 2.696385 -0.036198
v -0.055900 2.690219 -0.046096
v -0.055900 2.700979 -0.024906
v -0.108306 2.703853 -0.012685
v -0.188662 2.703853 -0.012685
v -0.153725 2.654870 -0.071758
v -0.108306 2.664598 -0.066503
v -0.153725 2.673969 -0.060785
v -0.188662 2.664598 -0.066503
v -0.055900 2.654870 -0.071758
v -0.055900 2.673969 -0.060785
v -0.108306 2.682628 -0.054137
v -0.188662 2.682628 -0.054137
v -0.250000 2.682667 0.054112
v -0.209625 2.690219 0.046096
v -0.209625 2.673969 0.060784
v -0.209625 2.654870 0.071757
v -0.250000 2.664611 0.066496
v -0.250000 2.703921 0.012603
v -0.209625 2.704861 -0.000000
v -0.209625 2.700979 0.024905
v -0.250000 2.696443 0.036148
v -0.250000 2.696443 -0.036348
v -0.209625 2.690219 -0.046096
v -0.209625 2.700979 -0.024906
v -0.250000 2.703921 -0.012802
v -0.250000 2.664611 -0.066695
v -0.209625 2.654870 -0.071758
v -0.209625 2.673969 -0.060785
v -0.250000 2.682667 -0.054312
v 0.000000 2.604179 0.032688
v 0.000000 2.598750 0.020998
v 0.000000 2.596502 -0.000000
v 0.000000 2.598750 -0.020999
v 0.000000 2.604179 -0.032688
v 0.000000 2.601246 0.027689
v 0.000000 2.597098 0.011345
v 0.000000 2.597098 -0.011346
v 0.000000 2.601246 -0.027690
v 0.000000 2.599916 0.024661
v 0.000000 2.602685 0.030294
v 0.000000 2.596656 0.005778
v 0.000000 2.597803 0.016489
v 0.000000 2.597803 -0.016490
v 0.000000 2.596656 -0.005779
v 0.000000 2.602685 -0.030295
v 0.000000 2.599916 -0.024662
v -0.005080 2.654870 0.071757
v 0.000000 2.651061 0.068822
v -0.002540 2.654360 0.071364
v -0.000680 2.652966 0.070289
v -0.005080 2.690219 0.046096
v 0.000000 2.684872 0.044628
v -0.002540 2.689502 0.045899
v -0.000680 2.687545 0.045362
v -0.005080 2.704861 -0.000000
v 0.000000 2.699310 -0.000000
v -0.002540 2.704117 -0.000000
v -0.000680 2.702085 -0.000000
v -0.005080 2.690219 -0.046096
v 0.000000 2.684871 -0.044629
v -0.002540 2.689502 -0.045900
v -0.000680 2.687545 -0.045363
v 0.000000 2.651061 -0.068822
v -0.005080 2.654870 -0.071758
v -0.000681 2.652966 -0.070290
v -0.002540 2.654360 -0.071364
v 0.000000 2.669107 0.058571
v -0.005080 2.673969 0.060784
v -0.000680 2.671538 0.059678
v -0.002540 2.673318 0.060488
v 0.000000 2.695468 0.024186
v -0.005080 2.700979 0.024905
v -0.000680 2.698224 0.024546
v -0.002540 2.700241 0.024809
v 0.000000 2.695468 -0.024187
v -0.005080 2.700979 -0.024906
v -0.000680 2.698223 -0.024546
v -0.002540 2.700240 -0.024810
v 0.000000 2.669107 -0.058572
v -0.005080 2.673969 -0.060785
v -0.000680 2.671538 -0.059678
v -0.002540 2.673318 -0.060488
v 0.000000 2.677464 0.052296
v -0.005080 2.682628 0.054136
v -0.000680 2.680046 0.053216
v -0.002540 2.681937 0.053890
v -0.005080 2.664598 0.066503
v 0.000000 2.660187 0.063923
v -0.002540 2.664007 0.066157
v -0.000680 2.662392 0.065213
v 0.000000 2.698312 0.012328
v -0.005080 2.703853 0.012685
v -0.000680 2.701083 0.012506
v -0.002540 2.703111 0.012637
v -0.005080 2.696385 0.036197
v 0.000000 2.690933 0.035107
v -0.002540 2.695655 0.036051
v -0.000680 2.693659 0.035652
v 0.000000 2.690933 -0.035108
v -0.005080 2.696385 -0.036198
v -0.000680 2.693659 -0.035653
v -0.002540 2.695655 -0.036052
v -0.005080 2.703853 -0.012685
v 0.000000 2.698312 -0.012328
v -0.002540 2.703111 -0.012637
v -0.000680 2.701083 -0.012507
v 0.000000 2.660187 -0.063924
v -0.005080 2.664598 -0.066503
v -0.000681 2.662392 -0.065214
v -0.002540 2.664007 -0.066158
v -0.005080 2.682628 -0.054137
v 0.000000 2.677464 -0.052297
v -0.002540 2.681937 -0.053891
v -0.000680 2.680046 -0.053217
vn -0.0000 0.7919 0.6106
vn -0.0000 0.6696 0.7427
vn -0.0000 0.6694 0.7429
vn -0.0000 0.6699 0.7424
vn -0.0000 0.5657 0.8246
vn -0.0000 0.5652 0.8249
vn -0.0000 0.6702 0.7422
vn 0.9903 0.1070 0.0885
vn 1.0000 -0.0000 -0.0000
vn 0.9913 0.1157 0.0623
vn 0.9886 0.0821 0.1263
vn 0.9893 0.0940 0.1115
vn 0.9938 0.0525 0.0976
vn 0.9884 0.0740 0.1324
vn -0.0000 0.4753 0.8798
vn -0.0000 0.4982 0.8670
vn -0.0000 1.0000 -0.0000
vn -0.0000 0.9880 0.1545
vn -0.0000 0.9527 0.3038
vn 0.9921 0.1258 -0.0000
vn 0.9920 0.1244 -0.0203
vn 0.9918 0.1212 0.0404
vn 0.9920 0.1244 0.0203
vn 0.1237 0.6672 0.7346
vn 0.1310 0.7869 0.6031
vn -0.0000 0.8908 0.4545
vn -0.0000 0.7919 -0.6106
vn -0.0000 0.8908 -0.4545
vn -0.0000 0.9527 -0.3038
vn 0.9903 0.1070 -0.0885
vn 0.9893 0.0940 -0.1115
vn 0.9918 0.1212 -0.0404
vn 0.9913 0.1157 -0.0623
vn 0.1407 0.9782 0.1525
vn 0.1413 0.9900 -0.0000
vn -0.0000 0.9880 -0.1545
vn -0.0000 0.4752 -0.8799
vn -0.0000 0.4982 -0.8670
vn -0.0000 0.5657 -0.8246
vn -0.0000 0.5652 -0.8250
vn 0.9884 0.0740 -0.1324
vn 0.9938 0.0525 -0.0976
vn 0.9886 0.0821 -0.1263
vn 0.1364 0.8832 -0.4487
vn 0.1310 0.7869 -0.6031
vn -0.0000 0.6702 -0.7422
vn -0.0000 0.6696 -0.7427
vn -0.0000 0.6698 -0.7425
vn 0.0009 0.7923 0.6101
vn 0.0020 0.6695 0.7428
vn -0.0024 0.6694 0.7429
vn -0.0022 0.7919 0.6107
vn -0.0026 0.5651 0.8250
vn 0.0025 0.5652 0.8249
vn -0.0025 0.4981 0.8671
vn -0.0025 0.4753 0.8798
vn 0.0031 0.4981 0.8671
vn 0.0025 0.4756 0.8797
vn -0.0002 1.0000 -0.0002
vn -0.0006 0.9880 0.1544
vn -0.0018 0.9880 0.1547
vn -0.0016 1.0000 0.0001
vn -0.0018 0.9527 0.3039
vn 0.0004 0.9528 0.3037
vn -0.0023 0.8908 0.4544
vn 0.0001 0.8911 0.4539
vn 0.0034 0.7918 -0.6108
vn 0.0030 0.8907 -0.4546
vn -0.0010 0.8909 -0.4543
vn -0.0008 0.7920 -0.6106
vn -0.0011 0.9528 -0.3037
vn 0.0012 0.9527 -0.3039
vn -0.0014 0.9880 -0.1546
vn 0.0003 0.9880 -0.1546
vn 0.0069 0.4756 -0.8796
vn 0.0074 0.4979 -0.8672
vn -0.0003 0.4981 -0.8671
vn -0.0005 0.4752 -0.8799
vn -0.0004 0.5652 -0.8250
vn 0.0067 0.5651 -0.8250
vn -0.0006 0.6695 -0.7428
vn 0.0057 0.6696 -0.7427
vn 0.1141 0.4958 0.8609
vn 0.1176 0.5635 0.8177
vn 0.1392 0.9438 0.2999
vn 0.1363 0.8832 0.4487
vn 0.1142 0.4958 -0.8609
vn 0.1168 0.4719 -0.8739
vn 0.1237 0.6672 -0.7346
vn 0.1176 0.5635 -0.8177
vn 0.1408 0.9782 -0.1525
vn 0.1393 0.9438 -0.2999
vn 0.8602 0.3998 0.3166
vn 0.8492 0.3489 0.3963
vn 0.4969 0.6879 0.5290
vn 0.4786 0.5894 0.6508
vn 0.8402 0.3028 0.4499
vn 0.4627 0.5024 0.7304
vn 0.8359 0.2714 0.4770
vn 0.8677 0.2357 0.4377
vn 0.4538 0.4443 0.7724
vn 0.4773 0.4172 0.7733
vn 0.1167 0.4719 0.8739
vn 0.8770 0.4805 -0.0000
vn 0.8765 0.4754 0.0756
vn 0.5235 0.8520 -0.0000
vn 0.5224 0.8425 0.1317
vn 0.8743 0.4616 0.1499
vn 0.5187 0.8146 0.2596
vn 0.8696 0.4378 0.2281
vn 0.5112 0.7658 0.3902
vn 0.8602 0.3998 -0.3166
vn 0.8696 0.4378 -0.2281
vn 0.4969 0.6879 -0.5290
vn 0.5112 0.7658 -0.3902
vn 0.8743 0.4617 -0.1500
vn 0.5187 0.8146 -0.2596
vn 0.8765 0.4754 -0.0757
vn 0.5224 0.8424 -0.1317
vn 0.8677 0.2357 -0.4377
vn 0.8359 0.2714 -0.4770
vn 0.4774 0.4172 -0.7733
vn 0.4538 0.4443 -0.7724
vn 0.8402 0.3028 -0.4499
vn 0.4627 0.5024 -0.7304
vn 0.8492 0.3489 -0.3963
vn 0.4786 0.5894 -0.6507
vt 0.207179 0.358930
vt 0.207099 0.304130
vt 0.207193 0.411613
vt 0.207228 0.464274
vt 0.207238 0.518989
vt 0.163144 0.332291
vt 0.163199 0.385305
vt 0.163239 0.437971
vt 0.163274 0.490954
vt 0.224499 0.332196
vt 0.224503 0.385283
vt 0.224521 0.437925
vt 0.224544 0.490952
vt 0.163104 0.304207
vt 0.163175 0.358965
vt 0.224435 0.304044
vt 0.163220 0.411640
vt 0.163257 0.464299
vt 0.163292 0.519014
vt 0.207152 0.332232
vt 0.207185 0.385280
vt 0.207209 0.437941
vt 0.207232 0.490937
vt 0.224525 0.358927
vt 0.224507 0.411606
vt 0.224557 0.464264
vt 0.224538 0.519021
vt 0.188030 0.345782
vt 0.134473 0.345843
vt 0.134437 0.318410
vt 0.187993 0.318334
vt 0.188067 0.398472
vt 0.134529 0.398514
vt 0.134503 0.372149
vt 0.188052 0.372101
vt 0.188100 0.451134
vt 0.134575 0.451172
vt 0.134553 0.424814
vt 0.188083 0.424773
vt 0.188126 0.504848
vt 0.134616 0.504882
vt 0.134596 0.477466
vt 0.188115 0.477433
vt 0.218658 0.345751
vt 0.218614 0.318278
vt 0.218658 0.398460
vt 0.218663 0.372094
vt 0.218692 0.451111
vt 0.218668 0.424755
vt 0.218694 0.504842
vt 0.218705 0.477427
vt 0.188042 0.358942
vt 0.163160 0.345809
vt 0.188013 0.332259
vt 0.207169 0.345762
vt 0.134488 0.358996
vt 0.134456 0.332327
vt 0.134418 0.304248
vt 0.163125 0.318371
vt 0.187968 0.304167
vt 0.207128 0.318302
vt 0.188075 0.411623
vt 0.163209 0.398489
vt 0.188060 0.385288
vt 0.207188 0.398463
vt 0.134541 0.411664
vt 0.134516 0.385332
vt 0.163187 0.372121
vt 0.207183 0.372093
vt 0.188108 0.464284
vt 0.163249 0.451150
vt 0.188092 0.437954
vt 0.207219 0.451121
vt 0.134586 0.464319
vt 0.134564 0.437993
vt 0.163229 0.424790
vt 0.207200 0.424762
vt 0.188133 0.518999
vt 0.163283 0.504862
vt 0.188120 0.490941
vt 0.207233 0.504842
vt 0.134626 0.519035
vt 0.134606 0.490974
vt 0.163266 0.477446
vt 0.207232 0.477427
vt 0.224517 0.345744
vt 0.218667 0.358926
vt 0.218640 0.332215
vt 0.218580 0.304101
vt 0.224472 0.318243
vt 0.224502 0.398460
vt 0.218663 0.411608
vt 0.218658 0.385280
vt 0.224513 0.372098
vt 0.224538 0.451103
vt 0.218705 0.464268
vt 0.218678 0.437931
vt 0.224511 0.424751
vt 0.224536 0.504865
vt 0.218697 0.518984
vt 0.218699 0.490939
vt 0.224554 0.477431
vt 0.103822 0.304290
vt 0.103894 0.359033
vt 0.103954 0.411694
vt 0.104004 0.464345
vt 0.104048 0.519059
vt 0.103860 0.332367
vt 0.103926 0.385365
vt 0.103981 0.438020
vt 0.104026 0.490998
vt 0.103877 0.345881
vt 0.103841 0.318451
vt 0.103940 0.398545
vt 0.103910 0.372184
vt 0.103993 0.451198
vt 0.103968 0.424842
vt 0.104037 0.504906
vt 0.104015 0.477491
vt 0.106602 0.304286
vt 0.103822 0.304290
vt 0.105212 0.303952
vt 0.103822 0.304290
vt 0.106674 0.359029
vt 0.103894 0.359033
vt 0.105284 0.358704
vt 0.103894 0.359033
vt 0.106734 0.411691
vt 0.103954 0.411694
vt 0.105344 0.411693
vt 0.103954 0.411694
vt 0.106783 0.464342
vt 0.104004 0.464345
vt 0.105394 0.464670
vt 0.104004 0.464345
vt 0.104048 0.519059
vt 0.106827 0.519056
vt 0.104048 0.519059
vt 0.105438 0.519393
vt 0.103860 0.332367
vt 0.106640 0.332363
vt 0.103860 0.332367
vt 0.105249 0.331902
vt 0.103926 0.385365
vt 0.106706 0.385362
vt 0.103926 0.385365
vt 0.105315 0.385222
vt 0.103981 0.438020
vt 0.106760 0.438018
vt 0.103981 0.438020
vt 0.105370 0.438161
vt 0.104026 0.490998
vt 0.106805 0.490996
vt 0.104026 0.490998
vt 0.105416 0.491459
vt 0.103877 0.345881
vt 0.106658 0.345877
vt 0.103877 0.345881
vt 0.105267 0.345456
vt 0.106622 0.318447
vt 0.103841 0.318451
vt 0.105231 0.318016
vt 0.103841 0.318451
vt 0.103940 0.398545
vt 0.106720 0.398542
vt 0.103940 0.398545
vt 0.105330 0.398473
vt 0.106690 0.372181
vt 0.103910 0.372184
vt 0.105300 0.371959
vt 0.103910 0.372184
vt 0.103993 0.451198
vt 0.106772 0.451196
vt 0.103993 0.451198
vt 0.105382 0.451420
vt 0.106747 0.424840
vt 0.103968 0.424842
vt 0.105358 0.424911
vt 0.103968 0.424842
vt 0.104037 0.504906
vt 0.106816 0.504904
vt 0.104037 0.504906
vt 0.105427 0.505338
vt 0.106794 0.477489
vt 0.104015 0.477491
vt 0.105405 0.477912
vt 0.104015 0.477491
s 1
usemtl roof-tile-01-Red
f 1/1/1 55/55/2 28/28/3 52/52/1
f 52/52/1 28/28/3 53/53/4 15/15/1
f 6/6/5 53/53/4 28/28/3 54/54/5
f 54/54/5 28/28/3 55/55/2 20/20/6
f 15/15/1 53/53/4 29/29/7 56/56/1
f 125/125/8 104/104/9 115/115/9 169/169/10
f 140/140/11 108/108/9 112/112/9 156/156/12
f 57/57/5 29/29/7 53/53/4 6/6/5
f 121/121/13 103/103/9 113/113/9 161/161/14
f 58/58/15 30/30/16 59/59/16 14/14/15
f 6/6/5 59/59/16 30/30/16 57/57/5
f 161/161/14 113/113/9 108/108/9 140/140/11
f 14/14/15 59/59/16 31/31/16 60/60/15
f 60/60/15 31/31/16 61/61/16 2/2/15
f 20/20/6 61/61/16 31/31/16 54/54/5
f 54/54/5 31/31/16 59/59/16 6/6/5
f 3/3/17 65/65/18 32/32/18 62/62/17
f 62/62/17 32/32/18 63/63/18 17/17/17
f 7/7/19 63/63/18 32/32/18 64/64/19
f 64/64/19 32/32/18 65/65/18 21/21/19
f 17/17/17 63/63/18 33/33/18 66/66/17
f 129/129/20 105/105/9 117/117/9 177/177/21
f 144/144/22 109/109/9 114/114/9 164/164/23
f 67/67/19 33/33/18 63/63/18 7/7/19
f 56/56/1 29/29/7 157/157/24 124/124/25
f 56/56/1 34/34/26 68/68/26 15/15/1
f 7/7/19 68/68/26 34/34/26 67/67/19
f 169/169/10 115/115/9 109/109/9 144/144/22
f 15/15/1 68/68/26 35/35/26 52/52/1
f 52/52/1 35/35/26 69/69/26 1/1/1
f 21/21/19 69/69/26 35/35/26 64/64/19
f 64/64/19 35/35/26 68/68/26 7/7/19
f 4/4/27 73/73/28 36/36/28 70/70/27
f 70/70/27 36/36/28 71/71/28 18/18/27
f 8/8/29 71/71/28 36/36/28 72/72/29
f 72/72/29 36/36/28 73/73/28 22/22/29
f 18/18/27 71/71/28 37/37/28 74/74/27
f 133/133/30 106/106/9 119/119/9 185/185/31
f 148/148/32 110/110/9 116/116/9 172/172/33
f 75/75/29 37/37/28 71/71/28 8/8/29
f 66/66/17 33/33/18 165/165/34 128/128/35
f 66/66/17 38/38/36 76/76/36 17/17/17
f 8/8/29 76/76/36 38/38/36 75/75/29
f 177/177/21 117/117/9 110/110/9 148/148/32
f 17/17/17 76/76/36 39/39/36 62/62/17
f 62/62/17 39/39/36 77/77/36 3/3/17
f 22/22/29 77/77/36 39/39/36 72/72/29
f 72/72/29 39/39/36 76/76/36 8/8/29
f 5/5/37 81/81/38 40/40/38 78/78/37
f 78/78/37 40/40/38 79/79/38 19/19/37
f 9/9/39 79/79/38 40/40/38 80/80/40
f 80/80/40 40/40/38 81/81/38 23/23/39
f 19/19/37 79/79/38 41/41/38 82/82/37
f 180/180/41 118/118/9 107/107/9 136/136/42
f 152/152/43 111/111/9 118/118/9 180/180/41
f 83/83/39 41/41/38 79/79/38 9/9/39
f 74/74/27 37/37/28 173/173/44 132/132/45
f 74/74/27 42/42/46 84/84/47 18/18/27
f 9/9/39 84/84/47 42/42/46 83/83/39
f 185/185/31 119/119/9 111/111/9 152/152/43
f 18/18/27 84/84/47 43/43/48 70/70/27
f 70/70/27 43/43/48 85/85/46 4/4/27
f 23/23/39 85/85/46 43/43/48 80/80/40
f 80/80/40 43/43/48 84/84/47 9/9/39
f 24/24/49 86/86/50 44/44/51 87/87/52
f 87/87/52 44/44/51 55/55/2 1/1/1
f 20/20/6 55/55/2 44/44/51 88/88/53
f 88/88/53 44/44/51 86/86/50 10/10/54
f 2/2/15 61/61/16 45/45/55 89/89/56
f 89/89/56 45/45/55 90/90/57 16/16/58
f 10/10/54 90/90/57 45/45/55 88/88/53
f 88/88/53 45/45/55 61/61/16 20/20/6
f 25/25/59 91/91/60 46/46/61 92/92/62
f 92/92/62 46/46/61 65/65/18 3/3/17
f 21/21/19 65/65/18 46/46/61 93/93/63
f 93/93/63 46/46/61 91/91/60 11/11/64
f 1/1/1 69/69/26 47/47/65 87/87/52
f 87/87/52 47/47/65 94/94/66 24/24/49
f 11/11/64 94/94/66 47/47/65 93/93/63
f 93/93/63 47/47/65 69/69/26 21/21/19
f 26/26/67 95/95/68 48/48/69 96/96/70
f 96/96/70 48/48/69 73/73/28 4/4/27
f 22/22/29 73/73/28 48/48/69 97/97/71
f 97/97/71 48/48/69 95/95/68 12/12/72
f 3/3/17 77/77/36 49/49/73 92/92/62
f 92/92/62 49/49/73 98/98/74 25/25/59
f 12/12/72 98/98/74 49/49/73 97/97/71
f 97/97/71 49/49/73 77/77/36 22/22/29
f 27/27/75 99/99/76 50/50/77 100/100/78
f 100/100/78 50/50/77 81/81/38 5/5/37
f 23/23/39 81/81/38 50/50/77 101/101/79
f 101/101/79 50/50/77 99/99/76 13/13/80
f 4/4/27 85/85/46 51/51/81 96/96/70
f 96/96/70 51/51/81 102/102/82 26/26/67
f 13/13/80 102/102/82 51/51/81 101/101/79
f 101/101/79 51/51/81 85/85/46 23/23/39
f 57/57/5 30/30/16 160/160/83 141/141/84
f 145/145/85 165/165/34 33/33/18 67/67/19
f 172/172/33 116/116/9 106/106/9 133/133/30
f 124/124/25 168/168/86 34/34/26 56/56/1
f 82/82/37 41/41/38 181/181/87 137/137/88
f 164/164/23 114/114/9 105/105/9 129/129/20
f 132/132/45 184/184/89 42/42/46 74/74/27
f 156/156/12 112/112/9 104/104/9 125/125/8
f 67/67/19 34/34/26 168/168/86 145/145/85
f 83/83/39 42/42/46 184/184/89 153/153/90
f 153/153/90 181/181/87 41/41/38 83/83/39
f 75/75/29 38/38/36 176/176/91 149/149/92
f 128/128/35 176/176/91 38/38/36 66/66/17
f 149/149/92 173/173/44 37/37/28 75/75/29
f 141/141/84 157/157/24 29/29/7 57/57/5
f 125/125/8 127/127/93 158/158/94 156/156/12
f 127/127/93 126/126/95 159/159/96 158/158/94
f 126/126/95 124/124/25 157/157/24 159/159/96
f 156/156/12 158/158/94 142/142/97 140/140/11
f 158/158/94 159/159/96 143/143/98 142/142/97
f 159/159/96 157/157/24 141/141/84 143/143/98
f 161/161/14 163/163/99 123/123/100 121/121/13
f 163/163/99 162/162/101 122/122/102 123/123/100
f 162/162/101 160/160/83 120/120/103 122/122/102
f 140/140/11 142/142/97 163/163/99 161/161/14
f 142/142/97 143/143/98 162/162/101 163/163/99
f 143/143/98 141/141/84 160/160/83 162/162/101
f 129/129/20 131/131/104 166/166/105 164/164/23
f 131/131/104 130/130/106 167/167/107 166/166/105
f 130/130/106 128/128/35 165/165/34 167/167/107
f 164/164/23 166/166/105 146/146/108 144/144/22
f 166/166/105 167/167/107 147/147/109 146/146/108
f 167/167/107 165/165/34 145/145/85 147/147/109
f 169/169/10 171/171/110 127/127/93 125/125/8
f 171/171/110 170/170/111 126/126/95 127/127/93
f 170/170/111 168/168/86 124/124/25 126/126/95
f 144/144/22 146/146/108 171/171/110 169/169/10
f 146/146/108 147/147/109 170/170/111 171/171/110
f 147/147/109 145/145/85 168/168/86 170/170/111
f 133/133/30 135/135/112 174/174/113 172/172/33
f 135/135/112 134/134/114 175/175/115 174/174/113
f 134/134/114 132/132/45 173/173/44 175/175/115
f 172/172/33 174/174/113 150/150/116 148/148/32
f 174/174/113 175/175/115 151/151/117 150/150/116
f 175/175/115 173/173/44 149/149/92 151/151/117
f 177/177/21 179/179/118 131/131/104 129/129/20
f 179/179/118 178/178/119 130/130/106 131/131/104
f 178/178/119 176/176/91 128/128/35 130/130/106
f 148/148/32 150/150/116 179/179/118 177/177/21
f 150/150/116 151/151/117 178/178/119 179/179/118
f 151/151/117 149/149/92 176/176/91 178/178/119
f 136/136/42 138/138/120 182/182/121 180/180/41
f 138/138/120 139/139/122 183/183/123 182/182/121
f 139/139/122 137/137/88 181/181/87 183/183/123
f 180/180/41 182/182/121 154/154/124 152/152/43
f 182/182/121 183/183/123 155/155/125 154/154/124
f 183/183/123 181/181/87 153/153/90 155/155/125
f 185/185/31 187/187/126 135/135/112 133/133/30
f 187/187/126 186/186/127 134/134/114 135/135/112
f 186/186/127 184/184/89 132/132/45 134/134/114
f 152/152/43 154/154/124 187/187/126 185/185/31
f 154/154/124 155/155/125 186/186/127 187/187/126
f 155/155/125 153/153/90 184/184/89 186/186/127
f 120/120/103 160/160/83 30/30/16 58/58/15
